<?xml version="1.0" standalone="no"?><!DOCTYPE svg PUBLIC "-//W3C//DTD SVG 1.1//EN" "http://www.w3.org/Graphics/SVG/1.1/DTD/svg11.dtd"><svg t="1593941109305" class="icon" viewBox="0 0 1024 1024" version="1.1" xmlns="http://www.w3.org/2000/svg" p-id="6135" xmlns:xlink="http://www.w3.org/1999/xlink" width="64" height="64"><defs><style type="text/css"></style></defs><path d="M859.429 804.571H832V416c0-161.257-119.2-294.514-274.286-316.686V54.857c0-25.257-20.457-45.714-45.714-45.714S466.286 29.6 466.286 54.857v44.457C311.2 121.486 192 254.743 192 416v388.571h-27.429c-20.228 0-36.571 16.343-36.571 36.572v36.571c0 5.029 4.114 9.143 9.143 9.143H384c0 70.629 57.371 128 128 128s128-57.371 128-128h246.857c5.029 0 9.143-4.114 9.143-9.143v-36.571c0-20.229-16.343-36.572-36.571-36.572zM512 941.714c-30.286 0-54.857-24.571-54.857-54.857h109.714c0 30.286-24.571 54.857-54.857 54.857zM274.286 804.571V416c0-63.543 24.685-123.2 69.6-168.114s104.571-69.6 168.114-69.6c63.543 0 123.2 24.685 168.114 69.6s69.6 104.571 69.6 168.114v388.571H274.286z" p-id="6136" fill="#bfbfbf"></path></svg>