<?xml version="1.0" standalone="no"?><!DOCTYPE svg PUBLIC "-//W3C//DTD SVG 1.1//EN" "http://www.w3.org/Graphics/SVG/1.1/DTD/svg11.dtd"><svg t="1593941198019" class="icon" viewBox="0 0 1024 1024" version="1.1" xmlns="http://www.w3.org/2000/svg" p-id="7545" xmlns:xlink="http://www.w3.org/1999/xlink" width="64" height="64"><defs><style type="text/css"></style></defs><path d="M1012.395613 955.840719l-215.113391-215.507227a450.391202 450.391202 0 0 0 104.012169-288.721398C901.294391 202.156177 699.650201 0 450.745654 0 201.762341 0 0 202.156177 0 451.612094c0 249.416534 201.762341 451.730245 450.627504 451.730246 110.74677 0 212.120235-40.053153 290.572428-106.493338l214.916473 215.42846a39.541165 39.541165 0 0 0 56.200441 0 39.895618 39.895618 0 0 0 0-56.397359h0.078767z m-561.728726-132.210848a369.969828 369.969828 0 0 1-262.413132-108.935123 370.836268 370.836268 0 0 1-108.659437-263.082654 370.32428 370.32428 0 0 1 108.698821-263.04327 369.969828 369.969828 0 0 1 524.905031 0 370.875651 370.875651 0 0 1 108.620054 263.04327 370.32428 370.32428 0 0 1-108.698821 263.082654 369.969828 369.969828 0 0 1-262.452516 108.935123z" fill="#bfbfbf" p-id="7546"></path></svg>